<svg width="177" height="100" viewBox="0 0 177 100" fill="none" xmlns="http://www.w3.org/2000/svg">
<path d="M44.5 32C42.2019 32 39.9262 32.4527 37.803 33.3321C35.6798 34.2116 33.7507 35.5006 32.1256 37.1256C30.5006 38.7507 29.2116 40.6798 28.3321 42.803C27.4527 44.9262 27 47.2019 27 49.5C27 51.7981 27.4527 54.0738 28.3321 56.197C29.2116 58.3202 30.5006 60.2493 32.1256 61.8744C33.7507 63.4994 35.6798 64.7884 37.803 65.6679C39.9262 66.5473 42.2019 67 44.5 67L44.5 58.25C43.3509 58.25 42.2131 58.0237 41.1515 57.5839C40.0899 57.1442 39.1253 56.4997 38.3128 55.6872C37.5003 54.8747 36.8558 53.9101 36.4161 52.8485C35.9763 51.7869 35.75 50.6491 35.75 49.5C35.75 48.3509 35.9763 47.2131 36.4161 46.1515C36.8558 45.0899 37.5003 44.1253 38.3128 43.3128C39.1253 42.5003 40.0899 41.8558 41.1515 41.4161C42.2131 40.9763 43.3509 40.75 44.5 40.75V32Z" fill="#0F52FF"/>
<circle cx="44.5001" cy="49.5" r="5.83333" fill="#0F52FF"/>
<path d="M27 49.5C27 51.7981 27.4527 54.0738 28.3321 56.197C29.2116 58.3202 30.5006 60.2493 32.1256 61.8744C33.7507 63.4994 35.6798 64.7884 37.803 65.6679C39.9262 66.5473 42.2019 67 44.5 67C46.7981 67 49.0738 66.5473 51.197 65.6679C53.3202 64.7884 55.2493 63.4994 56.8744 61.8744C58.4994 60.2493 59.7884 58.3202 60.6679 56.197C61.5473 54.0738 62 51.7981 62 49.5L53.25 49.5C53.25 50.6491 53.0237 51.7869 52.5839 52.8485C52.1442 53.9101 51.4997 54.8747 50.6872 55.6872C49.8747 56.4997 48.9101 57.1442 47.8485 57.5839C46.7869 58.0237 45.6491 58.25 44.5 58.25C43.3509 58.25 42.2131 58.0237 41.1515 57.5839C40.0899 57.1442 39.1253 56.4997 38.3128 55.6872C37.5003 54.8747 36.8558 53.9101 36.4161 52.8485C35.9763 51.7869 35.75 50.6491 35.75 49.5L27 49.5Z" fill="#5BD0F4"/>
<path d="M50.3334 49.5C50.3334 47.9529 49.7188 46.4692 48.6249 45.3752C47.5309 44.2812 46.0472 43.6666 44.5001 43.6666C42.953 43.6666 41.4693 44.2812 40.3753 45.3752C39.2813 46.4692 38.6667 47.9529 38.6667 49.5L44.5001 49.5L50.3334 49.5Z" fill="#5BD0F4"/>
<path d="M71.1396 42.925H68.9661V55H71.1396V42.925Z" fill="#0F52FF"/>
<path d="M72.5589 50.722C72.5589 53.5165 74.4909 55.2415 77.0439 55.2415C79.5969 55.2415 81.5289 53.5165 81.5289 50.722C81.5289 47.9275 79.5969 46.2025 77.0439 46.2025C74.4909 46.2025 72.5589 47.9275 72.5589 50.722ZM74.7324 50.722C74.7324 49.066 75.6984 48.1 77.0439 48.1C78.3894 48.1 79.3554 49.066 79.3554 50.722C79.3554 52.378 78.3894 53.344 77.0439 53.344C75.6984 53.344 74.7324 52.378 74.7324 50.722Z" fill="#0F52FF"/>
<path d="M89.296 46.444V47.5997H89.1235C88.606 46.858 87.778 46.2025 86.2945 46.2025C84.259 46.2025 82.4305 47.9275 82.4305 50.584C82.4305 53.2405 84.259 54.9655 86.2945 54.9655C87.778 54.9655 88.606 54.2927 89.089 53.62H89.2615V54.448C89.2615 56.104 88.2955 56.863 86.881 56.863C85.4665 56.863 84.742 56.104 84.4487 55.1207L82.4995 55.966C82.948 57.2597 84.259 58.6915 86.9155 58.6915C89.641 58.6915 91.435 57.2597 91.435 54.4997V46.444H89.296ZM86.95 53.1025C85.6045 53.1025 84.604 52.1365 84.604 50.584C84.604 49.0315 85.6045 48.0655 86.95 48.0655C88.2955 48.0655 89.296 49.0315 89.296 50.584C89.296 52.1365 88.2955 53.1025 86.95 53.1025Z" fill="#0F52FF"/>
<path d="M92.8411 50.722C92.8411 53.5165 94.7731 55.2415 97.3261 55.2415C99.8791 55.2415 101.811 53.5165 101.811 50.722C101.811 47.9275 99.8791 46.2025 97.3261 46.2025C94.7731 46.2025 92.8411 47.9275 92.8411 50.722ZM95.0146 50.722C95.0146 49.066 95.9806 48.1 97.3261 48.1C98.6716 48.1 99.6376 49.066 99.6376 50.722C99.6376 52.378 98.6716 53.344 97.3261 53.344C95.9806 53.344 95.0146 52.378 95.0146 50.722Z" fill="#0F52FF"/>
<path d="M103.517 43.96C103.517 44.8398 104.19 45.4435 105.053 45.4435C105.915 45.4435 106.588 44.8398 106.588 43.96C106.588 43.0803 105.915 42.4765 105.053 42.4765C104.19 42.4765 103.517 43.0803 103.517 43.96ZM106.139 46.444H103.966V55H106.139V46.444Z" fill="#5BD0F4"/>
<path d="M108.076 58.45H110.25V53.896H110.422C110.905 54.586 111.733 55.2415 113.217 55.2415C115.252 55.2415 117.081 53.5165 117.081 50.722C117.081 47.9275 115.252 46.2025 113.217 46.2025C111.733 46.2025 110.905 46.858 110.388 47.5998H110.215V46.444H108.076V58.45ZM112.561 53.3785C111.216 53.3785 110.215 52.4125 110.215 50.722C110.215 49.0315 111.216 48.0655 112.561 48.0655C113.907 48.0655 114.907 49.0315 114.907 50.722C114.907 52.4125 113.907 53.3785 112.561 53.3785Z" fill="#5BD0F4"/>
<path d="M118.349 48.8418C118.349 50.5323 119.763 51.1533 121.557 51.4983L122.006 51.5845C123.075 51.7915 123.558 52.0503 123.558 52.6023C123.558 53.1543 123.075 53.5855 122.075 53.5855C121.074 53.5855 120.264 53.1715 120.039 51.9295L118.038 52.447C118.332 54.241 119.832 55.2415 122.075 55.2415C124.248 55.2415 125.663 54.2238 125.663 52.4298C125.663 50.6357 124.214 50.1528 122.282 49.7733L121.833 49.687C120.936 49.5145 120.453 49.273 120.453 48.7038C120.453 48.1863 120.902 47.8585 121.73 47.8585C122.558 47.8585 123.144 48.2035 123.351 49.135L125.318 48.5313C124.904 47.1513 123.645 46.2025 121.73 46.2025C119.694 46.2025 118.349 47.1513 118.349 48.8418Z" fill="#5BD0F4"/>
<path d="M135.426 55V46.444H133.253V50.86C133.253 52.447 132.477 53.3785 131.148 53.3785C129.975 53.3785 129.32 52.7403 129.32 51.4465V46.444H127.146V51.55C127.146 53.6718 128.475 55.138 130.476 55.138C132.045 55.138 132.77 54.448 133.115 53.7235H133.287V55H135.426Z" fill="#5BD0F4"/>
<path d="M137.354 46.444V55H139.528V49.894C139.528 48.721 140.08 48.0655 141.08 48.0655C141.943 48.0655 142.46 48.5485 142.46 49.48V55H144.634V49.894C144.634 48.721 145.186 48.0655 146.186 48.0655C147.049 48.0655 147.566 48.5485 147.566 49.48V55H149.74V49.3765C149.74 47.3065 148.463 46.306 146.876 46.306C145.479 46.306 144.841 46.927 144.427 47.6515H144.254C143.857 46.8408 143.15 46.306 141.908 46.306C140.666 46.306 139.993 46.858 139.666 47.5135H139.493V46.444H137.354Z" fill="#5BD0F4"/>
</svg>
